Coordinates
version=1
nRows=12
nColumns=32
inDegrees=yes

Units are S.I. units (second, meters, Newtons, ...)
If the header above contains a line with 'inDegrees', this indicates whether rotational values are in degrees (yes) or radians (no).

endheader
time	pelvis_tilt	pelvis_list	pelvis_rotation	pelvis_tx	pelvis_ty	pelvis_tz	hip_flexion_r	hip_adduction_r	hip_rotation_r	knee_angle_r	knee_adduction_r	med_cond_adduction_r	lat_cond_adduction_r	patella_r_constrained_knee_angle	ankle_angle_r	subtalar_angle_r	mtp_angle_r	hip_flexion_l	hip_adduction_l	hip_rotation_l	knee_angle_l	knee_adduction_l	med_cond_adduction_l	lat_cond_adduction_l	patella_l_constrained_knee_angle	ankle_angle_l	subtalar_angle_l	mtp_angle_l	lumbar_extension	lumbar_bending	lumbar_rotation
      2.42000000	    -15.97824835	     -2.63995672	     -2.14489468	      0.14145501	      0.53393898	     -1.19465510	     90.01173849	    -43.59482791	     -4.54869917	   -106.15539198	     -8.79957057	      0.00000000	      0.00000000	     -1.85276111	     26.26288426	     18.88691519	     -0.00000000	     99.28219059	    -47.94591740	      3.16634478	   -107.39375864	     -8.87448071	     -0.00000000	     -0.00000000	     -1.87437468	     23.64962138	     19.63575076	      0.00000000	    -23.50072800	      4.75271332	     -0.01154600
      2.42500000	    -16.26080185	     -2.66751290	     -2.08875624	      0.14122465	      0.53804579	     -1.19468780	     89.50363416	    -43.51816219	     -5.00079400	   -105.40906430	     -8.63556151	      0.00000000	      0.00000000	     -1.83973523	     26.02998579	     18.88548202	      0.00000000	     98.76779069	    -47.80503779	      2.69556379	   -106.65023840	     -8.73986064	      0.00000000	      0.00000000	     -1.86139781	     23.42063342	     19.63490356	      0.00000000	    -23.12605817	      4.70273630	     -0.23261471
      2.43000000	    -16.54496901	     -2.65014195	     -2.10948763	      0.14100127	      0.54218576	     -1.19447821	     89.03794522	    -43.32582248	     -5.33945031	   -104.66371856	     -8.43267183	     -0.00000000	     -0.00000000	     -1.82672650	     25.80935909	     18.88067423	     -0.00000000	     98.18945483	    -47.75342717	      2.23785209	   -105.88263845	     -8.54978641	     -0.00000000	     -0.00000000	     -1.84800066	     23.22603800	     19.63693231	     -0.00000000	    -22.76718405	      4.74287475	     -0.08997787
      2.43500000	    -16.82587994	     -2.64482675	     -2.09459084	      0.14083903	      0.54631818	     -1.19436327	     88.56338987	    -43.19605448	     -5.67477386	   -103.91027974	     -8.20060248	     -0.00000000	      0.00000000	     -1.81357651	     25.57324845	     18.88251923	     -0.00000000	     97.61873495	    -47.65969306	      1.78376495	   -105.10492928	     -8.35812107	      0.00000000	      0.00000000	     -1.83442708	     23.00206415	     19.63748311	     -0.00000000	    -22.38319580	      4.76069791	     -0.06421668
      2.44000000	    -17.11220437	     -2.35918035	     -2.19219957	      0.14066216	      0.55042760	     -1.19373192	     88.44721086	    -42.92642699	     -5.48670086	   -103.18373076	     -7.90319081	     -0.00000000	     -0.00000000	     -1.80089584	     25.33907160	     18.88425636	     -0.00000000	     96.69575453	    -47.73060194	      0.89608819	   -104.29733307	     -8.15199450	      0.00000000	     -0.00000000	     -1.82033186	     22.81972685	     19.63887441	     -0.00000000	    -21.98052509	      4.46972846	      0.18770330
      2.44500000	    -17.42574360	     -2.50956751	     -2.12706482	      0.14056072	      0.55439625	     -1.19386278	     87.82310823	    -42.85891728	     -6.01567618	   -102.41221155	     -7.62274479	     -0.00000000	     -0.00000000	     -1.78743029	     25.11432885	     18.89452175	     -0.00000000	     96.39602042	    -47.54867396	      0.80483530	   -103.54462540	     -7.88644844	     -0.00000000	     -0.00000000	     -1.80719464	     22.56787188	     19.63951441	     -0.00000000	    -21.50187638	      4.54570012	     -0.09975643
      2.45000000	    -17.73128856	     -2.39492550	     -2.19990159	      0.14044524	      0.55842394	     -1.19344351	     87.52538284	    -42.61984703	     -6.06207196	   -101.66179107	     -7.29219413	      0.00000000	      0.00000000	     -1.77433298	     24.85088242	     18.89126925	     -0.00000000	     95.72514519	    -47.55499991	      0.30878939	   -102.74399999	     -7.59461899	     -0.00000000	     -0.00000000	     -1.79322109	     22.38084078	     19.64172664	      0.00000000	    -21.03870155	      4.44944384	      0.09071058
      2.45500000	    -18.03574009	     -2.44961395	     -2.17748839	      0.14036442	      0.56242122	     -1.19336131	     87.01415834	    -42.49626799	     -6.39431234	   -100.89255405	     -6.96611700	     -0.00000000	     -0.00000000	     -1.76090726	     24.62891985	     18.89798335	      0.00000000	     95.28348436	    -47.42391418	      0.12299459	   -101.96557470	     -7.27020650	     -0.00000000	     -0.00000000	     -1.77963500	     22.14331593	     19.64314267	     -0.00000000	    -20.55615507	      4.48309766	      0.00037357
      2.46000000	    -18.37056294	     -2.39987996	     -2.22107613	      0.14028596	      0.56631816	     -1.19305009	     86.67406529	    -42.29086755	     -6.51250114	   -100.12994213	     -6.60713621	      0.00000000	      0.00000000	     -1.74759717	     24.39785006	     18.89119970	      0.00000000	     94.74912175	    -47.38158022	     -0.19092348	   -101.17388830	     -6.91758307	      0.00000000	      0.00000000	     -1.76581747	     21.92887047	     19.64457184	      0.00000000	    -20.01469008	      4.39050358	      0.00870186
      2.46500000	    -18.70738540	     -2.37142588	     -2.21989207	      0.14023477	      0.57020640	     -1.19284850	     86.30337918	    -42.15695115	     -6.61899949	    -99.35517290	     -6.18334353	      0.00000000	      0.00000000	     -1.73407490	     24.13919535	     18.90981895	     -0.00000000	     94.25672163	    -47.28037373	     -0.48299513	   -100.38481861	     -6.57222931	     -0.00000000	     -0.00000000	     -1.75204560	     21.61296360	     19.64501103	      0.00000000	    -19.44749946	      4.31790681	     -0.07174147
      2.47000000	    -18.91478473	     -2.23338305	     -2.32416856	      0.14033520	      0.57454301	     -1.19229782	     85.89423721	    -41.88944106	     -6.68640667	    -98.56932635	     -5.88943417	     -0.00000000	     -0.00000000	     -1.72035929	     23.89039240	     18.88602601	     -0.00000000	     93.41600554	    -47.36858659	     -1.11235466	    -99.55376602	     -6.31709046	      0.00000000	      0.00000000	     -1.73754100	     21.42307736	     19.64689181	      0.00000000	    -19.06767937	      4.14534927	      0.10367175
      2.47500000	    -19.35044819	     -2.25140051	     -2.37137574	      0.14021877	      0.57797852	     -1.19201111	     85.64360827	    -41.66918081	     -6.76212006	    -97.83485061	     -5.42740373	      0.00000000	      0.00000000	     -1.70754027	     23.65664804	     18.87689161	      0.00000000	     93.13705348	    -47.26277473	     -0.98932589	    -98.77892819	     -5.73114158	      0.00000000	      0.00000000	     -1.72401753	     21.24255301	     19.65031448	      0.00000000	    -18.34353819	      4.31091828	      0.38817476
